<svg xmlns="http://www.w3.org/2000/svg" viewBox="0 0 240 60" width="240" height="60" fill="none">
  <defs>
    <linearGradient id="saarthiGrad" x1="0%" y1="0%" x2="100%" y2="100%">
      <stop offset="0%" stop-color="#16A34A" />
      <stop offset="100%" stop-color="#0D9488" />
    </linearGradient>
    <linearGradient id="leafGrad" x1="0%" y1="0%" x2="100%" y2="100%">
      <stop offset="0%" stop-color="#22C55E" />
      <stop offset="100%" stop-color="#15803D" />
    </linearGradient>
  </defs>
  <!-- Car & Community Icon Emblem -->
  <rect x="6" y="8" width="44" height="44" rx="12" fill="url(#saarthiGrad)" />
  <!-- Stylized Car Silhouette -->
  <path d="M16 34 L21 23 C22 21 24 20 27 20 L33 20 C36 20 38 21 39 23 L44 34 Z" fill="#FFFFFF" fill-opacity="0.95" />
  <rect x="15" y="32" width="26" height="8" rx="3" fill="#FFFFFF" />
  <!-- Wheels -->
  <circle cx="21" cy="40" r="3.5" fill="#14532D" />
  <circle cx="35" cy="40" r="3.5" fill="#14532D" />
  <circle cx="21" cy="40" r="1.5" fill="#FFFFFF" />
  <circle cx="35" cy="40" r="1.5" fill="#FFFFFF" />
  <!-- Small Leaf / Spark Accent -->
  <path d="M38 14 C38 14 42 16 42 20 C38 20 38 16 38 14 Z" fill="url(#leafGrad)" />
  <path d="M40 18 L43 14" stroke="#DCFCE7" stroke-width="1.5" stroke-linecap="round" />

  <!-- Brand Typography -->
  <text x="60" y="34" font-family="'Plus Jakarta Sans', 'Inter', -apple-system, sans-serif" font-weight="800" font-size="24" fill="#17221B" letter-spacing="0.5">SAARTHI</text>
  <text x="60" y="47" font-family="'Inter', sans-serif" font-weight="500" font-size="9" fill="#66736B" letter-spacing="0.2">SHARE THE RIDE · SHARE THE JOURNEY</text>
</svg>
